<svg width="40" height="40" viewBox="0 0 40 40" fill="none" xmlns="http://www.w3.org/2000/svg">
<circle cx="20" cy="20" r="20" fill="#ED3838"/>
<path d="M29.7388 24.4136C29.5716 25.6839 28.9477 26.85 27.9837 27.6939C27.0196 28.5379 25.7813 29.0021 24.5 28.9998C17.0563 28.9998 11 22.9436 11 15.4998C10.9977 14.2185 11.4619 12.9802 12.3059 12.0161C13.1499 11.0521 14.3159 10.4282 15.5863 10.2611C15.9075 10.2218 16.2328 10.2876 16.5136 10.4484C16.7944 10.6093 17.0157 10.8566 17.1444 11.1536L19.1244 15.5739V15.5851C19.2229 15.8124 19.2636 16.0606 19.2428 16.3074C19.222 16.5543 19.1404 16.7922 19.0053 16.9998C18.9884 17.0251 18.9706 17.0486 18.9519 17.072L17 19.3857C17.7022 20.8126 19.1947 22.292 20.6403 22.9961L22.9222 21.0545C22.9446 21.0357 22.9681 21.0181 22.9925 21.002C23.2 20.8636 23.4387 20.7792 23.687 20.7562C23.9353 20.7333 24.1854 20.7727 24.4147 20.8707L24.4269 20.8764L28.8434 22.8554C29.1409 22.9837 29.3889 23.2047 29.5503 23.4856C29.7116 23.7664 29.7778 24.092 29.7388 24.4136Z" fill="white"/>
</svg>
