<svg width="40" height="40" viewBox="0 0 40 40" fill="none" xmlns="http://www.w3.org/2000/svg">
<circle cx="20" cy="20" r="20" fill="#445C8B"/>
<path d="M28.0046 28.8049C27.8574 28.9387 27.6631 29.0085 27.4644 28.999C27.2657 28.9895 27.079 28.9015 26.9452 28.7543L24.4646 26.0262C23.379 26.8316 22.0953 27.3277 20.7502 27.4615V29.7499C20.7502 29.9488 20.6712 30.1396 20.5305 30.2802C20.3899 30.4209 20.1991 30.4999 20.0002 30.4999C19.8013 30.4999 19.6105 30.4209 19.4699 30.2802C19.3292 30.1396 19.2502 29.9488 19.2502 29.7499V27.4624C17.4011 27.2743 15.6875 26.4071 14.4407 25.0287C13.1939 23.6503 12.5025 21.8585 12.5002 19.9999C12.5002 19.801 12.5792 19.6102 12.7199 19.4696C12.8605 19.3289 13.0513 19.2499 13.2502 19.2499C13.4491 19.2499 13.6399 19.3289 13.7805 19.4696C13.9212 19.6102 14.0002 19.801 14.0002 19.9999C14.0003 21.0983 14.302 22.1755 14.8722 23.1142C15.4425 24.053 16.2595 24.8171 17.2342 25.3235C18.2089 25.8298 19.3038 26.0589 20.3998 25.9858C21.4957 25.9126 22.5505 25.5401 23.4493 24.9087L22.4293 23.7837C21.7496 24.2195 20.9653 24.4644 20.1585 24.4928C19.3517 24.5212 18.552 24.332 17.8435 23.9451C17.1349 23.5582 16.5435 22.9877 16.1312 22.2936C15.7189 21.5995 15.501 20.8072 15.5002 19.9999V16.1646L11.9452 12.2543C11.8776 12.1816 11.825 12.0963 11.7906 12.0032C11.7562 11.9101 11.7407 11.8111 11.7448 11.712C11.7489 11.6128 11.7727 11.5154 11.8148 11.4255C11.8568 11.3356 11.9163 11.255 11.9897 11.1882C12.0632 11.1215 12.1491 11.07 12.2426 11.0367C12.3361 11.0034 12.4353 10.989 12.5344 10.9943C12.6335 10.9997 12.7306 11.0246 12.82 11.0677C12.9094 11.1109 12.9893 11.1713 13.0552 11.2455L28.0552 27.7455C28.1889 27.8927 28.2588 28.087 28.2493 28.2857C28.2398 28.4844 28.1517 28.6711 28.0046 28.8049ZM23.1952 20.1696C23.297 20.2816 23.4303 20.3602 23.5777 20.395C23.725 20.4299 23.8794 20.4193 24.0206 20.3647C24.1618 20.3101 24.2831 20.2141 24.3687 20.0893C24.4544 19.9644 24.5002 19.8166 24.5002 19.6652V13.9999C24.5002 13.0207 24.1808 12.0683 23.5904 11.287C23.0001 10.5058 22.1711 9.93846 21.2291 9.67105C20.2871 9.40365 19.2836 9.45078 18.3709 9.80531C17.4581 10.1598 16.6859 10.8024 16.1714 11.6355C16.0852 11.7736 16.0462 11.936 16.0604 12.0982C16.0747 12.2604 16.1413 12.4136 16.2502 12.5346L23.1952 20.1696ZM26.0171 23.1537C26.1088 23.1894 26.2068 23.2068 26.3053 23.2047C26.4037 23.2026 26.5009 23.1812 26.591 23.1416C26.6812 23.102 26.7627 23.045 26.8309 22.9739C26.8991 22.9027 26.9526 22.8189 26.9883 22.7271C27.3279 21.858 27.5015 20.933 27.5002 19.9999C27.5002 19.801 27.4212 19.6102 27.2805 19.4696C27.1399 19.3289 26.9491 19.2499 26.7502 19.2499C26.5513 19.2499 26.3605 19.3289 26.2199 19.4696C26.0792 19.6102 26.0002 19.801 26.0002 19.9999C26.0014 20.7463 25.8628 21.4862 25.5914 22.1815C25.5555 22.2733 25.538 22.3712 25.5399 22.4698C25.5419 22.5683 25.5632 22.6655 25.6027 22.7558C25.6423 22.8461 25.6992 22.9277 25.7703 22.996C25.8414 23.0642 25.9252 23.1178 26.0171 23.1537Z" fill="#A0ACC4"/>
</svg>
