<svg width="129" height="129" viewBox="0 0 129 129" fill="none" xmlns="http://www.w3.org/2000/svg">
<g clip-path="url(#clip0_1750_350)">
<circle cx="64.5" cy="64.5" r="63.4068" fill="#FFB8B8" stroke="white" stroke-width="2.18644"/>
<path fill-rule="evenodd" clip-rule="evenodd" d="M53.3055 54.7988C49.791 52.3996 46.954 49.0654 46.11 44.7037C43.6784 32.1364 61.7272 30.2082 66.7645 35.5302C71.8019 40.8522 75.6324 56.7492 71.5758 59.0286C69.958 59.9376 65.9672 59.8421 61.5992 58.6016L68.4031 74.5406L54.4481 78.2798L53.3055 54.7988Z" fill="#B28B67"/>
<path fill-rule="evenodd" clip-rule="evenodd" d="M58.1486 42.9442C60.659 50.1762 63.0601 53.4852 65.352 52.8711C68.79 51.9499 71.1273 49.005 72.6359 48.6008C73.7355 48.3061 73.8555 49.7359 73.3975 50.9425C73.0197 51.9379 70.3065 53.5269 70.6531 54.8204C70.9997 56.1139 73.0455 54.4932 73.251 55.2603C73.591 56.5293 74.637 58.8062 72.4149 59.4016C70.1661 60.0041 63.5007 60.9195 61.5094 57.9075C60.2242 55.9637 58.5777 51.6632 56.5699 45.0061C56.4292 45.0266 56.2881 45.0555 56.1473 45.0933C54.2206 45.6096 53.0734 47.5762 53.5851 49.486C53.8449 50.4554 54.4822 51.2239 55.2989 51.678C54.7943 53.0236 54.2057 54.4458 53.4952 55.9409C48.9801 54.6686 44.2735 48.6634 46.336 41.1304C46.5335 37.6579 48.4595 35.3154 51.0613 33.7701C53.0875 32.2143 55.4251 31.4737 57.5743 31.5051C61.579 30.7888 65.3924 31.0353 66.5716 31.4726C67.5561 35.1467 67.1299 36.4293 60.9692 37.977C59.6731 39.17 58.8783 40.8393 58.1486 42.9442Z" fill="#191847"/>
<path fill-rule="evenodd" clip-rule="evenodd" d="M61.2441 126.869L90.7898 201.361L110.606 264.338H118.431L88.1363 126.869L61.2441 126.869Z" fill="#997659"/>
<path fill-rule="evenodd" clip-rule="evenodd" d="M55.2944 126.869C54.9798 153.046 50.3915 188.289 49.6584 189.921C49.1697 191.009 32.2989 204.843 -0.954102 231.422L4.43546 237.167C43.6709 214.379 64.1964 201.465 66.012 198.425C68.7355 193.866 77.6021 151.912 84.7207 126.869H55.2944Z" fill="#B28B67"/>
<path fill-rule="evenodd" clip-rule="evenodd" d="M81.109 257.851L118.313 253.829L90.7406 126.869H57.418L81.109 257.851Z" fill="#69A1AC"/>
<path fill-rule="evenodd" clip-rule="evenodd" d="M6.73877 222.153L31.1426 250.927C56.8467 222.962 71.8323 204.715 76.0993 196.186C80.3663 187.656 84.2021 164.551 87.6067 126.869H50.0915C48.2317 160.02 46.9781 177.367 46.3307 178.909C45.6832 180.452 32.4859 194.867 6.73877 222.153Z" fill="#89C5CC"/>
<path fill-rule="evenodd" clip-rule="evenodd" d="M107.313 113.06L128.66 123.543C134.031 124.016 138.618 124.974 142.421 126.417C143.364 127.011 144.609 128.33 141.193 128.666C137.776 129.003 134.197 129.51 133.934 130.736C133.67 131.962 135.952 132.971 135.284 134.68C134.838 135.82 131.422 133.761 125.034 128.505L104.946 124.08L107.313 113.06ZM34.792 126.339L47.189 124.203C43.8724 150.124 42.0417 163.89 41.6972 165.5C40.9219 169.125 44.7332 173.765 46.4627 176.315C42.737 178.828 41.9923 172.085 37.3083 175.346C33.0331 178.322 30.1804 182.851 24.2196 180.497C23.4868 180.208 22.4926 178.807 24.0327 177.303C27.8698 173.558 33.2371 167.241 33.784 165.377C34.53 162.835 34.8659 149.822 34.792 126.339Z" fill="#B28B67"/>
<path fill-rule="evenodd" clip-rule="evenodd" d="M60.8774 68.401L65.8494 66.6222C87.752 79.6179 101.102 109.65 127.35 122.178L122.959 130.088C81.6354 132.237 64.8555 95.6927 60.8774 68.401Z" fill="#E87613"/>
<path fill-rule="evenodd" clip-rule="evenodd" d="M49.8339 136.442C70.3882 132.818 85.5074 130.152 95.1917 128.445C97.2644 128.079 96.3487 125.17 95.7841 123.72C89.2681 106.986 72.4735 90.671 68.1203 65.9831L54.677 66.2485C46.9091 85.4753 46.9266 107.458 49.8339 136.442Z" fill="#DDE3E9"/>
<path fill-rule="evenodd" clip-rule="evenodd" d="M41.3442 86.1589C39.3481 85.9505 37.6199 84.9481 36.1593 83.1519C29.8634 75.409 30.7568 70.3772 35.5933 67.9222C40.4297 65.4672 45.5515 67.8644 53.6938 66.4287C54.1367 66.3506 54.5471 66.3067 54.9253 66.297L59.062 65.8073C77.8011 103.365 85.7042 129.234 82.7713 143.415L47.0711 149.709C45.8213 154.99 44.5254 159.477 43.1833 163.168L33.4556 164.883C27.3463 135.589 29.9758 109.348 41.3442 86.1589Z" fill="#FF9B21"/>
<path fill-rule="evenodd" clip-rule="evenodd" d="M51.2549 127.984C54.0259 137.134 57.0471 143.596 60.3183 147.371L47.0698 149.708C48.5276 143.548 49.9227 136.306 51.2549 127.984Z" fill="black" fill-opacity="0.1"/>
</g>
<defs>
<clipPath id="clip0_1750_350">
<rect width="129" height="129" fill="white"/>
</clipPath>
</defs>
</svg>
