<svg width="40" height="40" viewBox="0 0 40 40" fill="none" xmlns="http://www.w3.org/2000/svg">
<circle cx="20" cy="20" r="20" fill="#5A7CBC"/>
<path d="M15.5 20V14C15.5 12.8065 15.9741 11.6619 16.818 10.818C17.6619 9.97411 18.8065 9.5 20 9.5C21.1935 9.5 22.3381 9.97411 23.182 10.818C24.0259 11.6619 24.5 12.8065 24.5 14V20C24.5 21.1935 24.0259 22.3381 23.182 23.182C22.3381 24.0259 21.1935 24.5 20 24.5C18.8065 24.5 17.6619 24.0259 16.818 23.182C15.9741 22.3381 15.5 21.1935 15.5 20ZM27.5 20C27.5 19.8011 27.421 19.6103 27.2803 19.4697C27.1397 19.329 26.9489 19.25 26.75 19.25C26.5511 19.25 26.3603 19.329 26.2197 19.4697C26.079 19.6103 26 19.8011 26 20C26 21.5913 25.3679 23.1174 24.2426 24.2426C23.1174 25.3679 21.5913 26 20 26C18.4087 26 16.8826 25.3679 15.7574 24.2426C14.6321 23.1174 14 21.5913 14 20C14 19.8011 13.921 19.6103 13.7803 19.4697C13.6397 19.329 13.4489 19.25 13.25 19.25C13.0511 19.25 12.8603 19.329 12.7197 19.4697C12.579 19.6103 12.5 19.8011 12.5 20C12.5023 21.8586 13.1937 23.6504 14.4405 25.0288C15.6873 26.4072 17.4009 27.2743 19.25 27.4625V29.75C19.25 29.9489 19.329 30.1397 19.4697 30.2803C19.6103 30.421 19.8011 30.5 20 30.5C20.1989 30.5 20.3897 30.421 20.5303 30.2803C20.671 30.1397 20.75 29.9489 20.75 29.75V27.4625C22.5991 27.2743 24.3127 26.4072 25.5595 25.0288C26.8063 23.6504 27.4977 21.8586 27.5 20Z" fill="white"/>
</svg>
